<?xml version="1.0" encoding="UTF-8"?>
<!DOCTYPE svg PUBLIC "-//W3C//DTD SVG 1.1//EN" "http://www.w3.org/Graphics/SVG/1.1/DTD/svg11.dtd">
<!-- Creator: CorelDRAW -->
<svg xmlns="http://www.w3.org/2000/svg" xml:space="preserve" width="6.82666in" height="6.82666in" style="shape-rendering:geometricPrecision; text-rendering:geometricPrecision; image-rendering:optimizeQuality; fill-rule:evenodd; clip-rule:evenodd"
viewBox="0 0 6.82666 6.82666"
 xmlns:xlink="http://www.w3.org/1999/xlink">
 <defs>
  <style type="text/css">
   <![CDATA[
    .fil0 {fill:#607D8B}
    .fil1 {fill:#FFFFFE;fill-rule:nonzero}
   ]]>
  </style>
 </defs>
 <g id="Layer_x0020_1">
  <metadata id="CorelCorpID_0Corel-Layer"/>
  <rect class="fil0" width="6.82666" height="6.82666" rx="0.853335" ry="0.853335"/>
  <g id="_458284800">
   <path id="_458284872" class="fil1" d="M4.3405 4.99464c-0.0228504,-0.0305709 -0.0300433,-0.0654094 -0.0257047,-0.0995748 0.00333071,-0.0263228 0.014122,-0.051248 0.0297126,-0.0714646 0.0149803,-0.0194449 0.0353819,-0.0358346 0.0586299,-0.0459488 0.0315866,-0.0137677 0.0677283,-0.0167402 0.10413,-0.00324016l9.05512e-005 -0.000248031c0.610224,0.224823 0.864055,-0.145252 1.11999,-0.518402 0.106402,-0.155134 0.213142,-0.31074 0.345976,-0.437713 -0.247937,-0.183614 -0.347799,-0.366205 -0.424685,-0.506846 -0.0877756,-0.160559 -0.132165,-0.241736 -0.562819,-0.0944291l4.72441e-005 0.000133858c-0.0319764,0.0109921 -0.0655276,0.00974803 -0.0953819,-0.00173622 -0.0339173,-0.0130551 -0.061252,-0.0383346 -0.0760787,-0.0735039 -0.0130394,-0.0309409 -0.0141811,-0.0642362 -0.00504724,-0.094626 0.00790157,-0.0263071 0.0237402,-0.0513031 0.0460787,-0.070374 0.626028,-0.535142 0.608874,-0.658488 0.573063,-0.915902 -0.0201772,-0.145091 -0.0452205,-0.325059 -0.00542913,-0.602594 -0.273823,0.0601299 -0.455008,0.0485236 -0.601083,0.0391654 -0.259618,-0.0166417 -0.383909,-0.0246102 -0.871122,0.639197 -0.0173858,0.0237441 -0.0411732,0.0414567 -0.066815,0.0512205 -0.0294528,0.0112283 -0.0623307,0.0127047 -0.0936654,0.0023622l-3.93701e-005 0.000137795c-0.0366772,-0.0120197 -0.064248,-0.0373583 -0.0800157,-0.0702874l-0.000177165 8.26772e-005c-0.013563,-0.0284843 -0.0171535,-0.0619488 -0.00843307,-0.0953504 0.131016,-0.500075 0.0200394,-0.542803 -0.163087,-0.613295 -0.149008,-0.0573504 -0.331118,-0.127469 -0.508953,-0.327354 -0.223972,0.28424 -0.421571,0.397858 -0.580126,0.489024 -0.209004,0.120173 -0.333701,0.191882 -0.325217,0.762689 0.000870079,0.0594961 0.0080748,0.113102 0.0190906,0.160846 0.0107795,0.0467008 0.0249449,0.0864921 0.0401969,0.119965l0.000448819 0.000893701c0.0157953,0.0351929 0.0154016,0.0711693 0.00411811,0.103386 -0.00860236,0.0245512 -0.0235551,0.0463504 -0.0418307,0.0625984l-0.000452756 0c-0.0193976,0.0172205 -0.0436772,0.0298071 -0.0696654,0.034811 -0.0326339,0.0062874 -0.0671024,0.00139764 -0.0991181,-0.0188228l-7.48031e-005 0.000122047c-0.101331,-0.0636299 -0.170287,-0.099748 -0.198441,-0.0930472 -0.00634646,0.00151181 -0.0103307,0.0417244 -0.0122913,0.133634l-0.00211024 0.098878 -0.098 0.0124567c-0.114146,0.0145118 -0.152799,0.00734646 -0.152205,0.0120394 0.00291339,0.0229173 0.0383543,0.0752244 0.0817677,0.139295 0.124602,0.183886 0.299114,0.441429 0.218484,0.80622l0 0.000448819c-0.000751969,0.00329134 0.00614173,0.00576378 0.0180354,0.00848031 0.0308268,0.00703543 0.0744331,0.0120039 0.123394,0.0175709 0.340413,0.0387362 0.902984,0.102909 1.09287,1.12176 0.180531,0.49774 0.506752,0.550012 0.836201,0.602724 0.0950039,0.0152008 0.19024,0.030437 0.283028,0.0539449 0.067,-0.337819 0.19437,-0.449969 0.274315,-0.520331 0.021248,-0.0187008 0.0273937,-0.0241299 -0.101469,-0.199098l-0.000137795 9.84252e-005z"/>
   <path id="_458284920" class="fil1" d="M2.88158 4.26966c-0.321287,0.503858 -0.760685,0.767295 -1.24813,1.05953 -0.207539,0.124425 -0.424173,0.254307 -0.646343,0.413421l-0.13378 -0.186748c0.223831,-0.160307 0.44787,-0.294626 0.662504,-0.423307 0.463209,-0.277705 0.880756,-0.528043 1.17272,-0.985902l0.193031 0.123004z"/>
  </g>
 </g>
</svg>
